<?xml version="1.0" encoding="UTF-8" standalone="no"?> <svg xmlns="http://www.w3.org/2000/svg" xmlns:xlink="http://www.w3.org/1999/xlink" viewBox="0 0 64 64"><defs><style>.cls-1{fill:url(#linear-gradient);}.cls-2{fill:url(#linear-gradient-2);}</style><linearGradient id="linear-gradient" x1="13.4" y1="32" x2="50.5" y2="32" gradientUnits="userSpaceOnUse"><stop offset="0" stop-color="#17a6d7"/><stop offset="1" stop-color="#9d31fe"/></linearGradient><linearGradient id="linear-gradient-2" x1="28.88" y1="56.06" x2="35.1" y2="56.06" xlink:href="#linear-gradient"/></defs><g id="Layer_15" data-name="Layer 15"><path class="cls-1" d="M47,2.5H16.9A3.5,3.5,0,0,0,13.4,6V58a3.5,3.5,0,0,0,3.5,3.5H47A3.5,3.5,0,0,0,50.5,58V6A3.5,3.5,0,0,0,47,2.5Zm-30.1,3H47a.5.5,0,0,1,.5.5V8.68H16.4V6A.5.5,0,0,1,16.9,5.5Zm30.6,45h-31V11.68h31Zm-.5,8H16.9a.5.5,0,0,1-.5-.5V53.5H47.5V58A.5.5,0,0,1,47,58.5Z"/><path class="cls-2" d="M33.62,54.56H30.38a1.5,1.5,0,1,0,0,3h3.24A1.5,1.5,0,0,0,33.62,54.56Z"/></g></svg>